HIERARCHY
ROOT base
{
	OFFSET 0.0 0.0 0.0
	CHANNELS 6 Xposition Yposition Zposition Zrotation Yrotation Xrotation
	JOINT root
	{
		OFFSET 0 0 0
		CHANNELS 6 Xposition Yposition Zposition Zrotation Yrotation Xrotation
		JOINT chest
		{
			OFFSET 0 4.72302 0
			CHANNELS 3 Zrotation Yrotation Xrotation
			JOINT neck
			{
				OFFSET 0 4.47788 0
				CHANNELS 3 Zrotation Yrotation Xrotation
				End Site
				{
					OFFSET 0.0 0.0 0.0
				}
			}
			JOINT right_shoulder
			{
				OFFSET -0.481 4.87 3.6622
				CHANNELS 3 Zrotation Yrotation Xrotation
				JOINT right_elbow
				{
					OFFSET 0 -5.49576 0
					CHANNELS 3 Zrotation Yrotation Xrotation
					JOINT right_wrist
					{
						OFFSET 0 -5.17894 0
						CHANNELS 3 Zrotation Yrotation Xrotation
						End Site
						{
							OFFSET 0.0 0.0 0.0
						}
					}
				}
			}
			JOINT left_shoulder
			{
				OFFSET -0.481 4.87 -3.6622
				CHANNELS 3 Zrotation Yrotation Xrotation
				JOINT left_elbow
				{
					OFFSET 0 -5.49576 0
					CHANNELS 3 Zrotation Yrotation Xrotation
					JOINT left_wrist
					{
						OFFSET 0 -5.17894 0
						CHANNELS 3 Zrotation Yrotation Xrotation
						End Site
						{
							OFFSET 0.0 0.0 0.0
						}
					}
				}
			}
		}
		JOINT right_hip
		{
			OFFSET 0 0 1.69774
			CHANNELS 3 Zrotation Yrotation Xrotation
			JOINT right_knee
			{
				OFFSET 0 -8.43092 0
				CHANNELS 3 Zrotation Yrotation Xrotation
				JOINT right_ankle
				{
					OFFSET 0 -8.1974 0
					CHANNELS 3 Zrotation Yrotation Xrotation
					End Site
					{
						OFFSET 0.0 0.0 0.0
					}
				}
			}
		}
		JOINT left_hip
		{
			OFFSET 0 0 -1.69774
			CHANNELS 3 Zrotation Yrotation Xrotation
			JOINT left_knee
			{
				OFFSET 0 -8.43092 0
				CHANNELS 3 Zrotation Yrotation Xrotation
				JOINT left_ankle
				{
					OFFSET 0 -8.1974 0
					CHANNELS 3 Zrotation Yrotation Xrotation
					End Site
					{
						OFFSET 0.0 0.0 0.0
					}
				}
			}
		}
	}
	JOINT red_arrow
	{
		OFFSET 0 0 0
		CHANNELS 3 Zrotation Yrotation Xrotation
		End Site
		{
			OFFSET 0.0 0.0 0.0
		}
	}
	JOINT blue_arrow
	{
		OFFSET 0 0 0
		CHANNELS 3 Zrotation Yrotation Xrotation
		End Site
		{
			OFFSET 0.0 0.0 0.0
		}
	}
}
MOTION
Frames: 16
Frame Time: 0.0333333333333333
210.709931305051 0 42.4332072898746 0 -9.21607438638708 0 0 17.3282006978989 0 -9.66671870997627 2.01096489912355 1.1859457125812 -1.86517038954383 -1.09146012256832 -1.19848746316492 -6.82574373987409 0.483186856865135 -2.81264212466739 3.77251927840687 12.2823926541194 -14.1468999681346 34.3647341861797 0 0 0 0 0 2.37107422013431 -7.80977233101374 3.56338175798187 3.80359361056259 0 0 0 0 0 13.9486506411769 6.6987976142628 0.164062901683483 -65.3973400952012 0 0 -24.6755219613624 12.1915560304745 -1.2879162356476 20.3800540983324 5.76474760510497 -6.88524195783566 -12.5297924946389 0 0 1.37007615289503 -2.52697159169867 6.33066362179529 0 0 0 0 0 0
211.424837893248 0 42.5330081172287 0 -9.08973602575297 0 0 17.3960114240646 0 -8.97301440922796 2.37108592265416 0.770346936515051 -0.618758220006168 -0.783599641350395 -0.601059501227124 -5.36935224936984 0.340509672894259 -2.02705218483448 3.02087832249444 10.7760888654293 -13.3616429867697 28.4436414871484 0 0 0 0 0 4.96453297778747 -13.9066549773687 5.85967267156403 6.01750167293972 0 0 0 0 0 19.6109747837428 7.91504388974906 -0.505542995683222 -76.7383910987655 0 0 -20.8397000540563 9.76483745910834 0.164881564766921 17.0830995870994 4.74293176335712 -6.62452980670189 -12.0946915152625 0 0 3.5950275044031 -2.50052286973992 6.09468729345415 0 0 0 0 0 0
212.102750816941 0 42.6813969258219 0 -8.89951742959351 0 0 17.4413248538971 0 -8.02317845879837 3.57886925955433 0.0344529467930857 -0.271846599052763 -0.657385979619663 -0.289538602694265 -4.08701775117992 0.221249610834797 -1.35183613846878 2.27202532892621 9.10452987958809 -11.9673382402834 21.7619047711986 0 0 0 0 0 6.47435944227775 -19.482440609568 9.03862533470974 10.4559455720425 0 0 0 0 0 25.2882160013576 7.10837946406596 -1.57628433355804 -85.7138607248092 0 0 -14.0962527810338 6.76147037538106 0.223398168304003 13.7878405709855 3.53780339358067 -5.92046193383566 -11.8733652116238 0 0 5.71930203414821 -3.18803319513917 5.71522423284927 0 0 0 0 0 0
212.767788620293 0 42.8555100837722 0 -8.60867865268843 0 0 17.4832374453545 0 -6.87863273777771 5.48640504853699 -0.765413030529204 -0.507128469619777 -0.596577444092102 -0.253460726903976 -2.74113211604168 0.20743467436033 -0.871585049871725 1.62368560014807 7.51863149934942 -10.3664563463176 14.4320718954738 0 0 0 0 0 7.1970514943977 -24.5331691834325 13.1463784021111 16.8344492096005 0 0 0 0 0 31.0955228380118 4.34752762923515 -3.27406449750941 -90.7948247880034 0 0 -6.01294675645884 3.59397126411486 -1.17913355394266 9.74810884935727 2.11848105004214 -4.96222395255303 -10.4110174414558 0 0 7.0998649398823 -4.42446444484144 5.17746207203196 0 0 0 0 0 0
213.403019525111 0 43.0087762370706 0 -8.22093595337786 0 0 17.5086490154266 0 -6.26984736910405 7.32352521330877 -1.45309116284411 -0.175441238296611 -0.423561842395451 -0.139376475301534 -1.23441708666765 0.337745912895924 -0.649617178092896 1.08947134309444 6.36163408369493 -9.17353212843172 6.30850060186765 0 0 0 0 0 6.97767275795887 -29.3804802466077 18.315913623482 23.9746009018849 0 0 0 0 0 37.9187203825372 -0.262918213173715 -6.1397688457702 -90.4817015956933 0 0 2.23937528653974 0.311825095725829 -3.5694552095079 5.80911378940801 0.808745681804248 -3.95104217292496 -7.8662682491748 0 0 7.82652700038157 -5.6915396750511 4.61312704651632 0 0 0 0 0 0
214.015120889246 0 43.1351244606078 0 -7.74903115886023 0 0 17.5189186096191 0 -6.42042219890361 8.91086145410245 -2.11543516208558 0.41935203279705 -0.117629290180968 0.224360513677483 2.26015917699325 0.706495437411732 -0.475673229715838 -0.410801714949395 4.95742372481219 -8.15425603637133 -0.00159065388258028 0 0 0 0 0 6.00469703953499 -31.5256744106856 21.8705143801788 30.7844514760966 0 0 0 0 0 43.4170579123073 -4.79904891733652 -8.83775492756367 -83.4601715062718 0 0 9.47288995995183 -3.30625880233137 -6.26777778123756 3.92842793911309 0.115994204834353 -2.89698972480026 -7.79329706940332 0 0 8.94249964239446 -7.17982987425035 4.12467423421941 0 0 0 0 0 0
214.558109773695 0 43.2554055009037 0 -7.23332573787028 0 0 17.4960149168968 0 -6.98052005236588 9.72716519469858 -2.64674596001701 -0.0603629928387586 0.533376178164823 0.310419835337586 4.90519878784333 0.448035335525858 -0.374347122248066 -2.76277701736447 3.82509327403577 -7.73177513024007 -0.078989910451581 0 0 0 0 0 6.28239684377425 -32.0622784195047 24.0646011144934 37.6229188353834 0 0 0 0 0 46.9790609046779 -8.90809777691917 -10.104113437909 -71.163303830256 0 0 13.7445353172577 -6.03660700808844 -7.49806988984914 2.83654815116686 -0.371386203727345 -1.94338515356739 -8.08201684958258 0 0 10.3802924033768 -8.08533593144564 3.62710143084819 0 0 0 0 0 0
215.08294121623 0 43.3486796185374 0 -6.7042133091012 0 0 17.4266928672791 0 -7.67909216664048 9.96479484576222 -2.7302052814716 -1.14945062027688 0.97407564781852 0.0939501315433009 6.63992646767939 -0.0113209511709223 -0.494364981783441 -5.2534090112802 3.47378451698915 -8.36714989309461 -7.05981117268494E-06 0 0 0 0 0 7.32856459647537 -31.6544721933462 24.6949920163144 42.3367124193652 0 0 0 0 0 48.3607590777003 -11.9036020814199 -10.0038210254313 -56.1937694716358 0 0 16.4685874301379 -8.06683310503528 -7.96676082148753 1.79111786701162 -0.744032272183683 -1.49598998277993 -8.15391739720166 0 0 12.113605650773 -8.56018368803725 3.17568284977475 0 0 0 0 0 0
215.592717459798 0 43.4707527559251 0 -6.14814335816678 0 0 17.3252485990524 0 -8.66441132337159 10.4474235391146 -2.68136697956118 -2.64127620656308 1.02608613358696 -0.4592945878217 7.57288557787844 -0.37960529978089 -0.558148804910672 -6.8943788172128 2.32386361946598 -7.60512612396548 -4.73934394053784E-05 0 0 0 0 0 8.76043269254339 -31.4653321141775 25.1187543259239 45.6333407883123 0 0 0 0 0 48.0758678356628 -13.8267388386017 -8.85252029749922 -41.8366503645665 0 0 16.4626569006015 -8.59869455256872 -7.21309247246816 0.923968762110997 -1.12045017009769 -1.06836204976611 -7.91946688507274 0 0 14.0418187391571 -9.29342047923041 2.49563816686258 0 0 0 0 0 0
216.122866362333 0 43.5708575434983 0 -5.5704023922309 0 0 17.2072939157486 0 -9.7352439395289 10.8227640813442 -2.35650013059167 -3.98189349112957 0.716999220413965 -0.842250749757241 7.36922587167916 -0.689024587428377 -0.656220415329367 -7.90970600985692 2.50224332328891 -7.75191184683072 -0.000401230648871835 0 0 0 0 0 10.4397914844522 -30.2797133531269 24.9989718077003 46.9458606750732 0 0 0 0 0 46.8311039846939 -15.2270704834191 -7.57134327744583 -30.2988523468654 0 0 14.1590796060141 -7.69241063230951 -5.74622177457834 0.441382603467182 -1.41947674955677 -0.964531022715837 -8.40259690091901 0 0 15.9636931675271 -9.97301367765665 1.91809119041323 0 0 0 0 0 0
216.713658756018 0 43.6841350950301 0 -4.96601108079017 0 0 17.0927403688431 0 -10.4691638592117 11.2972245921553 -1.84843702436344 -5.41391806638176 0.0965574327421877 -1.42356208371945 6.39358109500772 -0.856853207205771 -0.572040479469507 -7.73617931385941 1.81622044666739 -6.6115644908016 -0.0034294098844393 0 0 0 0 0 11.842883832321 -28.7758856784932 24.2043399645071 48.0883600779196 0 0 0 0 0 43.9788198524382 -15.5599221549168 -5.95358246070373 -21.3236559283885 0 0 9.61638427360082 -5.55709322065375 -3.89567336307947 0.0532804650838601 -1.78174041386829 -0.890554844595712 -10.040309778027 0 0 17.5665953034431 -10.6245404669087 1.44839429214821 0 0 0 0 0 0
217.401930892467 0 43.8020548465662 0 -4.34182138098621 0 0 16.9748261451721 0 -10.4558473097556 11.6681194128835 -1.15034057970425 -6.85836110638881 -0.788549716659887 -1.98246105555085 4.11573817054774 -0.984407610816798 -0.577193808125123 -6.90230520527993 0.996896854076773 -4.82097840834285 -0.0280972504711036 0 0 0 0 0 13.2915078375996 -27.4149737599232 23.3559924203941 48.2045655013636 0 0 0 0 0 39.4110432028129 -14.8388299785277 -4.05089213778646 -15.2987084954798 0 0 3.2941010657904 -2.57254992389329 -2.36148478847036 -0.688364634773825 -2.09860742221755 -0.791757432609037 -12.9973240659682 0 0 18.6779835615449 -11.176872790021 1.22403227709279 0 0 0 0 0 0
218.154321044683 0 43.9006347119808 0 -3.72521727805099 0 0 16.8450679779053 0 -10.2971194348375 11.5318830122564 -0.258522704682114 -7.86242366324886 -1.5720934038988 -2.38325955824769 1.37215620311574 -0.941905071647151 -0.67331179962706 -5.76012575779944 -0.00713919330260565 -2.98387393500445 -2.21728588574824E-06 0 0 0 0 0 14.4060771218182 -25.7465156102418 21.9882901313013 47.6267758938101 0 0 0 0 0 34.6821804622547 -13.7337083417214 -2.14470099459077 -12.0287264020322 0 0 -4.69312939430349 1.94937913984546 -5.34617321994857 -0.985541372993152 -2.19332488717763 -0.943669205077208 -17.5062939371196 0 0 18.9175792690034 -11.4313862574775 1.50014772868414 0 0 0 0 0 0
218.826707530022 0 44.0192234108224 0 -3.28120257324724 0 0 16.8713771224022 0 -10.9046816036892 8.28608180647104 -0.188139933949825 -8.54237103896745 -1.24146248172069 -2.37289422000712 -2.54374018230925 -0.537240141872925 -0.582936025962377 -3.64671339411143 -0.899212954044531 -1.42030944506471 -6.40077630455895E-05 0 0 0 0 0 14.3973716192588 -22.2922836109212 19.3492523176618 44.9848962888896 0 0 0 0 0 32.9491474914978 -11.1313461490084 0.159760129041732 -11.2944802124822 0 0 -10.5404089297439 3.07712398582056 -5.68104174667419 1.56777416786575 -0.588300497252221 -0.866268642473057 -25.4210283548712 0 0 14.5593550507018 -9.76332773468928 3.10067718558729 0 0 0 0 0 0
219.549373599887 0 44.1439749164507 0 -2.98081509537771 0 0 17.0559762597084 0 -10.842830894576 5.60612291078406 -0.440280936201642 -9.23151255950804 -1.79063758034403 -2.48210245734485 -2.80609813506407 -0.324961896734535 -0.338568479934305 -2.56245274930893 -0.438376089488219 -0.931704724984534 0.177429705039486 0 0 0 0 0 14.0015942180311 -20.027823555457 16.521393041637 44.5236604444278 0 0 0 0 0 28.7202945504351 -9.46410435860211 2.50893118892004 -8.3831812344296 0 0 -9.62292872485177 3.32824933404068 -5.90853168939444 4.20829658997109 0.298728452587214 -0.504449744184854 -33.0873453774148 0 0 2.94256245044595 -7.54396030122263 5.4053435303894 0 0 0 0 0 0
220.28030064702 0 44.2542608659714 0 -2.79937432935977 0 0 17.205713391304 0 -10.9056601750279 3.38526118475606 -0.885067176330396 -8.21263450485929 -1.76055353018733 -2.26027530804225 -2.02370985995154 -0.195003826721922 -0.249834053150449 -1.73699541813509 1.555894131597 -1.94668659092834 1.10108327015353 0 0 0 0 0 13.5436573968884 -17.9257217701432 13.2978860197135 42.9333499339333 0 0 0 0 0 24.4309638952289 -7.55363645815393 4.5767162147938 -4.91595608435675 0 0 -8.95085700215358 3.27138786734057 -5.98972650453645 8.1816552485734 0.724528568092511 0.275617204535989 -41.4048287297653 0 0 -10.1646613520211 -5.74396912821585 6.91305550437216 0 0 0 0 0 0
